<svg width="288" height="303" viewBox="0 0 288 303" fill="none" xmlns="http://www.w3.org/2000/svg">
<path d="M200.22 112.921C162.406 123.219 126.342 78.9615 152.436 52.8676C163.69 41.6134 181.867 40.3107 196.99 46.76C231.917 61.6565 232.691 104.084 200.22 112.921Z" fill="#FFFEFD" fill-opacity="0.2"/>
<path d="M170.54 132.655C199.404 103.792 256.923 144.027 237.538 179.484C228.704 195.637 205.716 201.062 185.1 189.572C161.987 176.698 154.314 148.881 170.54 132.655Z" fill="#FFFEFD" fill-opacity="0.2"/>
<path d="M76.1138 53.0749C73.2104 58.1884 66.8082 66.0142 59.4646 73.5635C51.7082 81.5497 42.9046 89.2282 36.1005 93.0883C17.6986 103.489 7.78213 132.763 32.184 148.566C54.7449 163.173 67.9753 147.826 88.9663 162.059C110.17 176.454 131.992 171.813 144.181 158.28C155.461 145.754 158.486 125.609 145.104 105.913C130.839 84.9297 146.167 71.7389 131.56 49.1899C115.757 24.7562 86.4935 34.7664 76.1138 53.0749Z" fill="#FFFEFD" fill-opacity="0.2"/>
<path d="M119.74 183.452C127.904 175.288 139.645 173.004 150.778 176.345C183.881 186.283 194.649 235.097 166.551 250.435C131.025 269.846 90.8926 212.299 119.74 183.452Z" fill="#FFFEFD" fill-opacity="0.2"/>
<path d="M73.7526 163.557C105.633 176.902 111.288 226.491 81.6162 238.781C45.8767 253.585 11.8756 197.292 39.6631 169.504C48.5807 160.587 61.6337 158.483 73.7526 163.557Z" fill="#FFFEFD" fill-opacity="0.2"/>
</svg>
