<svg width="91" height="91" viewBox="0 0 91 91" fill="none" xmlns="http://www.w3.org/2000/svg">
<rect width="91" height="91" rx="45.5" fill="#FAC663"/>
<path d="M47.1588 46.617C50.4341 46.617 53.1139 50.0596 53.1139 50.9203C53.1139 51.7809 50.4341 54.6498 47.1588 54.6498C43.8835 54.6498 41.5015 50.9203 41.5015 50.9203C41.5015 50.9203 43.8835 46.617 47.1588 46.617Z" fill="#FFFDFB"/>
<path d="M37.9285 47.4777L41.5015 50.9203M41.5015 50.9203L37.9285 54.3629M41.5015 50.9203C41.5015 50.9203 43.8835 54.6498 47.1588 54.6498C50.4341 54.6498 53.1139 51.7809 53.1139 50.9203C53.1139 50.0596 50.4341 46.617 47.1588 46.617C43.8835 46.617 41.5015 50.9203 41.5015 50.9203Z" stroke="#FFFDFB" stroke-width="2" stroke-linecap="round" stroke-linejoin="round"/>
<path d="M32.4815 34.6067L32.4816 34.6067C32.9201 34.557 33.267 34.2576 33.3744 33.8717C33.5911 33.0926 34.3441 32.526 35.0631 32.1888C35.7979 31.8443 36.6813 31.6514 37.3625 31.7624L37.3628 31.7624C37.8001 31.8339 38.2282 31.6385 38.447 31.29L38.4471 31.2898C38.8264 30.6862 39.4922 30.2774 40.1757 30.083C40.8604 29.8882 41.6469 29.8843 42.3024 30.1934L42.3024 30.1934C42.6978 30.3799 43.1707 30.3124 43.4902 30.0311L43.4902 30.0311C44.0283 29.5573 44.7857 29.3474 45.4986 29.347C46.2116 29.3466 46.97 29.5557 47.51 30.031L47.51 30.0311C47.8294 30.3124 48.302 30.38 48.6979 30.1934C49.3535 29.8843 50.2855 29.8939 51.086 30.0735C51.4981 30.166 51.9059 30.3098 52.2601 30.5043C52.6099 30.6963 52.9373 30.9542 53.1482 31.2898L53.1482 31.2899C53.3672 31.6385 53.795 31.8335 54.2328 31.7624L32.4815 34.6067ZM32.4815 34.6067C32.326 34.6244 32.1848 34.7045 32.1116 34.7479C32.0148 34.8053 31.9078 34.8799 31.7976 34.9635C31.5758 35.1317 31.3127 35.3581 31.0454 35.613C30.5197 36.1143 29.9275 36.7737 29.6049 37.3655L29.202 38.1048H30.044H60.9554H61.7979L61.3943 37.3653C61.0646 36.7611 60.6099 36.1162 60.2218 35.6228C60.0272 35.3753 59.8438 35.1589 59.6952 34.9996C59.6218 34.921 59.5502 34.849 59.4857 34.7927C59.4542 34.7651 59.4155 34.7334 59.373 34.7052L59.3712 34.704C59.3457 34.6871 59.2479 34.622 59.1139 34.6067L59.1137 34.6067C58.6754 34.557 58.3284 34.2575 58.2213 33.872L58.2213 33.8719M32.4815 34.6067L58.2213 33.8719M34.3379 34.1397L34.3378 34.1399C34.1209 34.9191 33.4486 35.4823 32.647 35.5937C32.6403 35.5973 32.6318 35.602 32.6216 35.6081C32.5692 35.6391 32.4953 35.6894 32.402 35.7602C32.2166 35.9008 31.9823 36.1014 31.7355 36.3367C31.4826 36.5779 31.2297 36.843 31.0094 37.1048H60.0638C59.8586 36.7983 59.6393 36.4997 59.4358 36.2409C59.2527 36.0081 59.088 35.8146 58.9641 35.6819C58.9242 35.6391 58.8911 35.6055 58.8651 35.5804C58.1009 35.4429 57.4668 34.892 57.2578 34.1396C57.1637 33.8013 56.7558 33.4028 56.1152 33.099C55.491 32.8029 54.8175 32.6801 54.3943 32.7493L54.3939 32.7494C53.5742 32.8828 52.7423 32.5237 52.3014 31.8218M34.3379 34.1397L41.8759 31.0979C42.6272 31.4523 43.5283 31.3299 44.151 30.7816C44.4584 30.511 44.9562 30.3473 45.4991 30.347C46.042 30.3467 46.5403 30.5098 46.8492 30.7816L47.1796 30.4063L46.8492 30.7817C47.472 31.33 48.3726 31.4522 49.1242 31.0979L49.1243 31.0979C49.492 30.9245 50.1666 30.8921 50.8671 31.0493C51.2054 31.1252 51.5217 31.2397 51.7789 31.3809C52.0406 31.5245 52.2121 31.6796 52.3014 31.8218M34.3379 34.1397C34.4343 33.7927 34.846 33.3951 35.4877 33.0942M34.3379 34.1397L35.4877 33.0942M52.3014 31.8218L52.7248 31.5558L52.3015 31.8218C52.3014 31.8218 52.3014 31.8218 52.3014 31.8218ZM58.2213 33.8719C58.0076 33.1031 57.2604 32.5354 56.5438 32.1955M58.2213 33.8719L56.5438 32.1955M35.4877 33.0942C36.1136 32.8007 36.7868 32.6817 37.2017 32.7494M35.4877 33.0942L37.2017 32.7494M37.2017 32.7494C38.0218 32.8833 38.8537 32.5229 39.2939 31.8217M37.2017 32.7494L39.2939 31.8217M39.2939 31.8217C39.5066 31.4833 39.9311 31.1923 40.4494 31.0448M39.2939 31.8217L40.4494 31.0448M40.4494 31.0448C40.9665 30.8977 41.4934 30.9175 41.8758 31.0979L40.4494 31.0448ZM56.5438 32.1955C55.8109 31.8478 54.9254 31.6492 54.233 31.7624L56.5438 32.1955ZM32.6677 35.5833C32.6677 35.5833 32.6672 35.5835 32.6662 35.5839L32.6677 35.5833ZM68.1632 38.9608L68.1632 38.9608L71.4899 61.3677C71.5311 61.6461 71.4456 61.9315 71.2486 62.1502C71.0505 62.3697 70.7588 62.5 70.4471 62.5H20.5527C20.2406 62.5 19.9487 62.3695 19.7511 62.1502C19.5542 61.9315 19.4688 61.6463 19.5102 61.3681L19.5103 61.3679L22.8365 38.9608L22.8365 38.9608C22.9073 38.4839 23.3397 38.1044 23.8789 38.1044H27.9532H28.3508L28.4403 37.7171C29.0891 34.9121 31.6555 34.0651 31.9557 33.9692L32.1525 33.9063L32.2475 33.7228C33.636 31.0415 36.51 30.9067 36.8287 30.896L37.0314 30.8891L37.1721 30.743C38.87 28.9794 41.1699 28.9614 42.403 29.2664L42.5976 29.3145L42.7716 29.2148C44.922 27.9826 47.1355 28.5888 48.2282 29.2148L48.4022 29.3145L48.5968 29.2663C49.8295 28.9614 52.129 28.979 53.8273 30.743L53.968 30.8892L54.1708 30.896C54.4927 30.9067 57.3626 31.0414 58.7519 33.7226L58.8469 33.9058L59.0435 33.9687C59.3392 34.0633 61.9084 34.9062 62.559 37.7172L62.6487 38.1044H63.0462H67.1209C67.6601 38.1044 68.0925 38.4839 68.1632 38.9608ZM20.0619 61.6576L19.9744 62.2328H20.5562H70.4435H71.0254L70.9378 61.6576L67.4593 38.7964L67.3946 38.3716H66.965H24.0348H23.6051L23.5405 38.7964L20.0619 61.6576Z" fill="#FFFDFB" stroke="#FFFDFB" stroke-width="0.999999"/>
</svg>
