<svg width="125" height="64" viewBox="0 0 125 64" fill="none" xmlns="http://www.w3.org/2000/svg">
<g filter="url(#filter0_d)">
<path fill-rule="evenodd" clip-rule="evenodd" d="M17 9C14.7909 9 13 10.7909 13 13V35C13 37.2091 14.7909 39 17 39H42L50 47L58 39H108C110.209 39 112 37.2091 112 35V13C112 10.7909 110.209 9 108 9H17Z" fill="#FFFEFD"/>
<path d="M42 39L42.3536 38.6464L42.2071 38.5H42V39ZM50 47L49.6464 47.3536L50 47.7071L50.3536 47.3536L50 47ZM58 39V38.5H57.7929L57.6464 38.6464L58 39ZM13.5 13C13.5 11.067 15.067 9.5 17 9.5V8.5C14.5147 8.5 12.5 10.5147 12.5 13H13.5ZM13.5 35V13H12.5V35H13.5ZM17 38.5C15.067 38.5 13.5 36.933 13.5 35H12.5C12.5 37.4853 14.5147 39.5 17 39.5V38.5ZM42 38.5H17V39.5H42V38.5ZM50.3536 46.6464L42.3536 38.6464L41.6464 39.3536L49.6464 47.3536L50.3536 46.6464ZM57.6464 38.6464L49.6464 46.6464L50.3536 47.3536L58.3536 39.3536L57.6464 38.6464ZM108 38.5H58V39.5H108V38.5ZM111.5 35C111.5 36.933 109.933 38.5 108 38.5V39.5C110.485 39.5 112.5 37.4853 112.5 35H111.5ZM111.5 13V35H112.5V13H111.5ZM108 9.5C109.933 9.5 111.5 11.067 111.5 13H112.5C112.5 10.5147 110.485 8.5 108 8.5V9.5ZM17 9.5H108V8.5H17V9.5Z" fill="#FAC663"/>
</g>
<defs>
<filter id="filter0_d" x="0.5" y="0.5" width="124" height="63.2071" filterUnits="userSpaceOnUse" color-interpolation-filters="sRGB">
<feFlood flood-opacity="0" result="BackgroundImageFix"/>
<feColorMatrix in="SourceAlpha" type="matrix" values="0 0 0 0 0 0 0 0 0 0 0 0 0 0 0 0 0 0 127 0"/>
<feOffset dy="4"/>
<feGaussianBlur stdDeviation="6"/>
<feColorMatrix type="matrix" values="0 0 0 0 0.678431 0 0 0 0 0.596078 0 0 0 0 0.560784 0 0 0 0.18 0"/>
<feBlend mode="normal" in2="BackgroundImageFix" result="effect1_dropShadow"/>
<feBlend mode="normal" in="SourceGraphic" in2="effect1_dropShadow" result="shape"/>
</filter>
</defs>
</svg>
