<svg width="21" height="23" viewBox="0 0 21 23" fill="none" xmlns="http://www.w3.org/2000/svg">
<path d="M3.012 22.0155C1.956 20.2635 1.248 18.4275 0.888 16.5075C0.528 14.5635 0.492 12.6435 0.78 10.7475C1.068 8.85151 1.68 7.03951 2.616 5.31151C3.576 3.58351 4.848 2.03551 6.432 0.66751L8.628 1.99951C9.012 2.26351 9.18 2.58751 9.132 2.97151C9.084 3.33151 8.952 3.63151 8.736 3.87151C8.16 4.59151 7.644 5.49151 7.188 6.57151C6.756 7.62751 6.468 8.77951 6.324 10.0275C6.18 11.2755 6.228 12.5715 6.468 13.9155C6.708 15.2595 7.212 16.5795 7.98 17.8755C8.316 18.4275 8.412 18.9195 8.268 19.3515C8.124 19.7835 7.812 20.0955 7.332 20.2875L3.012 22.0155ZM14.208 22.0155C13.152 20.2635 12.444 18.4275 12.084 16.5075C11.724 14.5635 11.688 12.6435 11.976 10.7475C12.264 8.85151 12.876 7.03951 13.812 5.31151C14.772 3.58351 16.044 2.03551 17.628 0.66751L19.824 1.99951C20.208 2.26351 20.376 2.58751 20.328 2.97151C20.28 3.33151 20.148 3.63151 19.932 3.87151C19.356 4.59151 18.84 5.49151 18.384 6.57151C17.952 7.62751 17.664 8.77951 17.52 10.0275C17.376 11.2755 17.424 12.5715 17.664 13.9155C17.904 15.2595 18.408 16.5795 19.176 17.8755C19.512 18.4275 19.608 18.9195 19.464 19.3515C19.32 19.7835 19.008 20.0955 18.528 20.2875L14.208 22.0155Z" fill="#FAC663"/>
</svg>
