<svg width="180" height="175" viewBox="0 0 180 175" fill="none" xmlns="http://www.w3.org/2000/svg">
<path d="M65.2107 50.4441C74.7141 70.5893 53.514 95.1239 36.3301 83.0916C28.9188 77.9022 26.3917 67.8599 28.505 58.7632C33.3866 37.7543 57.0534 33.1456 65.2107 50.4441Z" fill="#FAC663" fill-opacity="0.15"/>
<path d="M79.1902 65.1089C60.1825 51.7996 77.0095 15.6552 98.7698 23.0125C108.683 26.3653 113.993 38.6942 109.602 51.3606C104.684 65.56 89.8759 72.5911 79.1902 65.1089Z" fill="#FAC663" fill-opacity="0.15"/>
<path d="M43.9957 125.776C47.1445 126.898 52.1573 129.71 57.1085 133.076C62.345 136.63 67.5129 140.8 70.3461 144.227C77.9868 153.5 95.3505 156.167 101.78 140.958C107.723 126.897 97.8255 121.005 103.714 107.859C109.673 94.5774 104.917 82.8244 96.1381 77.3357C88.0122 72.2569 76.4396 72.5471 66.741 81.9736C56.4092 92.0205 47.511 84.742 36.337 95.1343C24.2265 106.382 32.7231 121.77 43.9957 125.776Z" fill="#FAC663" fill-opacity="0.15"/>
<path d="M112.642 88.5341C107.266 84.7694 104.827 78.4249 105.595 71.8665C107.882 52.3664 134.135 41.5366 145.497 55.7489C159.874 73.7168 131.64 101.836 112.642 88.5341Z" fill="#FAC663" fill-opacity="0.15"/>
<path d="M106.058 116.224C110.372 97.0719 137.564 89.0275 147.377 104.42C159.197 122.961 131.057 147.526 112.758 134.713C106.885 130.601 104.417 123.504 106.058 116.224Z" fill="#FAC663" fill-opacity="0.15"/>
</svg>
